#define A_width 7
#define A_height 13
static char A_bits[] = {
  0x00, 0x00, 0x0E, 0x11, 0x11, 0x11, 0x1F, 0x11, 0x11, 0x11, 0x00, 0x00, 
  0x00, };
